<?xml version="1.0" standalone="no"?>
<!DOCTYPE svg PUBLIC "-//W3C//DTD SVG 20010904//EN"
 "http://www.w3.org/TR/2001/REC-SVG-20010904/DTD/svg10.dtd">
<svg version="1.0" xmlns="http://www.w3.org/2000/svg"
 width="48" height="48" viewBox="0 0 1999.000000 2000.000000"
 preserveAspectRatio="xMidYMid meet">

<g transform="translate(0.000000,2000.000000) scale(0.100000,-0.100000)"
fill="#000000" stroke="none">
<path d="M9585 19989 c-3448 -144 -6556 -2037 -8276 -5043 -1248 -2179 -1621
-4789 -1038 -7261 789 -3346 3293 -6081 6564 -7170 924 -308 1817 -467 2846
-506 603 -23 1297 22 1934 126 1589 259 3084 897 4380 1871 1031 774 1905
1742 2568 2846 762 1266 1233 2685 1376 4148 39 390 45 540 45 1000 0 460 -6
610 -45 1000 -259 2640 -1568 5067 -3644 6761 -434 354 -999 735 -1501 1010
-1582 868 -3399 1293 -5209 1218z m895 -769 c1882 -102 3673 -765 5145 -1903
1381 -1069 2420 -2477 3025 -4101 293 -788 460 -1538 545 -2454 l7 -72 -2453
2 -2452 3 -32 160 c-354 1778 -1785 3157 -3575 3445 -411 66 -886 71 -1295 14
-999 -140 -1931 -627 -2598 -1359 -554 -608 -915 -1315 -1071 -2099 l-32 -161
-2453 -3 -2453 -2 6 57 c3 32 13 128 21 213 169 1717 865 3420 1957 4786 241
302 390 467 702 780 369 368 617 585 997 870 1439 1081 3201 1723 5004 1823
219 12 791 13 1005 1z m-295 -6240 c748 -51 1426 -363 1946 -896 398 -409 664
-904 783 -1454 51 -236 60 -336 60 -630 0 -294 -9 -395 -60 -629 -95 -442
-288 -851 -575 -1221 -149 -192 -397 -428 -609 -580 -889 -636 -2062 -734
-3037 -255 -331 162 -582 343 -834 601 -862 885 -1091 2195 -580 3324 150 330
344 606 620 880 552 549 1275 852 2071 868 36 1 133 -3 215 -8z m-4466 -3807
c43 -242 162 -630 270 -883 530 -1237 1609 -2168 2904 -2505 1011 -262 2082
-156 3012 300 1051 515 1847 1422 2220 2530 54 160 139 483 151 578 l7 47
2453 0 2454 0 0 -34 c0 -18 -7 -100 -15 -182 -92 -886 -327 -1797 -673 -2615
-704 -1661 -1880 -3083 -3376 -4084 -361 -241 -646 -406 -1046 -605 -1017
-504 -2111 -813 -3245 -915 -546 -49 -1134 -49 -1680 0 -2503 226 -4803 1467
-6382 3446 -816 1023 -1412 2227 -1728 3489 -114 454 -212 1031 -241 1408 l-7
92 2455 0 2455 0 12 -67z"/>
<path d="M9630 18650 c-620 -27 -1275 -126 -1855 -281 -216 -58 -356 -102
-352 -112 2 -6 73 -25 158 -43 376 -78 881 -205 1279 -321 116 -34 166 -53
168 -64 2 -14 -276 -72 -1770 -369 -975 -194 -1777 -356 -1782 -361 -5 -5 -7
-11 -4 -15 4 -3 483 -105 1065 -226 582 -120 1062 -223 1068 -229 6 -6 6 -12
0 -18 -6 -4 -806 -176 -1780 -380 -973 -205 -1774 -376 -1778 -380 -14 -14 0
-18 163 -50 853 -165 2186 -433 2194 -441 5 -5 7 -12 4 -16 -4 -3 -163 -39
-355 -81 -191 -41 -944 -202 -1673 -359 -729 -156 -1335 -286 -1348 -289 -53
-13 -4 -31 204 -77 120 -26 667 -144 1214 -263 547 -118 999 -220 1004 -225 5
-5 0 -13 -15 -19 -13 -6 -692 -146 -1509 -311 -817 -166 -1507 -306 -1533
-312 -27 -5 -46 -15 -44 -21 2 -6 304 -70 673 -142 368 -73 893 -176 1167
-230 405 -80 497 -101 495 -113 -2 -11 -51 -26 -173 -54 -1794 -405 -2716
-616 -2721 -621 -4 -4 -5 -10 -1 -13 3 -4 504 -109 1112 -234 609 -126 1109
-231 1113 -234 3 -4 1 -11 -4 -16 -5 -5 -551 -105 -1214 -222 -789 -140 -1205
-217 -1208 -226 -3 -9 369 -12 1817 -12 l1820 0 12 43 c163 611 483 1247 883
1752 165 209 410 466 606 639 819 720 1824 1137 2935 1217 201 14 658 6 854
-16 1017 -113 1931 -507 2700 -1164 154 -132 442 -425 572 -582 410 -497 714
-1057 903 -1659 25 -80 50 -164 56 -187 l11 -43 1900 0 1899 0 -5 23 c-2 12
-12 67 -20 121 -85 544 -264 1199 -480 1746 -374 953 -886 1788 -1584 2585
-245 281 -711 726 -1028 982 -1396 1132 -3094 1796 -4893 1913 -228 14 -696
20 -920 10z"/>
<path d="M9735 11754 c-428 -65 -819 -282 -1091 -607 -561 -668 -561 -1626 0
-2295 193 -229 447 -407 736 -515 388 -145 840 -145 1230 0 899 333 1370 1319
1065 2231 -211 629 -770 1094 -1428 1187 -127 18 -391 18 -512 -1z m584 -379
c188 -37 368 -111 531 -220 96 -64 148 -108 105 -90 -72 30 -254 87 -325 102
-118 24 -373 24 -490 -1 -386 -82 -695 -292 -920 -625 -102 -151 -196 -384
-237 -586 -28 -139 -25 -493 5 -631 54 -250 172 -501 320 -682 19 -23 33 -45
30 -47 -8 -8 -165 104 -236 168 -241 217 -401 494 -474 818 -20 92 -23 130
-23 319 0 184 4 229 22 312 69 306 199 545 412 759 244 243 523 379 871 423
71 9 328 -3 409 -19z"/>
<path d="M16845 8430 c-907 -187 -1661 -342 -1675 -346 -24 -6 -24 -7 -5 -15
11 -5 531 -108 1155 -230 624 -121 1139 -224 1143 -229 5 -4 4 -11 -2 -14 -5
-4 -653 -142 -1438 -307 -785 -165 -1432 -304 -1436 -308 -10 -10 -54 -1 1333
-262 619 -116 1127 -213 1129 -215 2 -2 2 -6 0 -8 -2 -2 -778 -162 -1724 -356
-1971 -403 -1860 -380 -1848 -390 4 -5 217 -54 473 -109 256 -55 726 -157
1045 -226 319 -69 718 -156 887 -192 302 -65 339 -75 326 -89 -7 -6 -552 -120
-3018 -628 -630 -130 -1151 -239 -1159 -242 -8 -2 -12 -7 -9 -10 3 -3 630
-139 1393 -304 763 -164 1389 -301 1393 -304 15 -15 -34 -27 -343 -84 -1083
-199 -3792 -704 -3805 -709 -11 -4 -8 -8 10 -14 14 -5 495 -103 1069 -218 574
-116 1046 -213 1049 -216 3 -3 1 -9 -4 -14 -5 -5 -367 -88 -804 -184 -2260
-501 -3326 -737 -3339 -742 -25 -10 -7 -14 130 -34 645 -95 1407 -112 2079
-45 1570 155 3074 739 4329 1682 554 416 1081 920 1522 1458 867 1055 1485
2343 1758 3666 35 168 81 473 81 536 0 37 -3 42 -22 41 -13 0 -765 -153 -1673
-339z"/>
</g>
</svg>
